<svg xmlns="http://www.w3.org/2000/svg" viewBox="0 0 1789.79 1668.44"><defs><style>.cls-1,.cls-5{fill:#177fc2;}.cls-1,.cls-2,.cls-3{stroke:#1d1d1b;stroke-miterlimit:10;}.cls-2,.cls-4{fill:#535353;}.cls-3{fill:none;}.cls-4{font-size:94px;font-family:MalgunGothic-Semilight, Malgun Gothic;font-weight:300;letter-spacing:0.26em;}.cls-5{font-size:230px;font-family:BellMT, Bell MT;}.cls-6{fill:#a32a2d;}.cls-7{fill:#fff;}</style></defs><g id="corona"><path class="cls-1" d="M900.75,1005.38" transform="translate(-104.02 -207.1)"/><path class="cls-1" d="M1134.19,1078.49c-4.19,11-33,83.17-82.69,87.39-17,1.43-30.3-5.55-40.41-11.07-8.65-4.73-18.85-10.52-30.49-17.54-3.09,13.2-4.23,24.4-15.3,30a28.38,28.38,0,0,1-14.67,2.72,81.79,81.79,0,0,0,12-23.61,52,52,0,0,0,2.66-18.59q-15.62-9.86-34-22.41c-2.51,10.89-4.74,20.21-15.51,27.39a40.1,40.1,0,0,1-11.93,5.35c1.6-2.44,3.89-6.16,6.32-10.83,6.23-12,7.94-20.06,9.92-29.72-17.41-12.3-36.41-26.46-56.88-42.69,0,0,19.5-33,37.5-49.5,10.46,8.36,24.7,19.27,42.38,31.3a38,38,0,0,1,6.74-6.56,75.86,75.86,0,0,0,8.63-7.13,78.08,78.08,0,0,0,13.77-17.61,47.47,47.47,0,0,1,.75,24,44,44,0,0,1-2.77,8.06,82.15,82.15,0,0,1-7,12.4q5.35,3.38,11,6.82c10,6,19,11.43,27.16,16.19,2-2.21,4-4.68,6.09-7.47a115.82,115.82,0,0,0,14.25-25.5,41.3,41.3,0,0,1-1.75,36.74c-.94,1.81-1.91,3.48-2.89,5.05,25,13.35,41.88,18.39,57.36,12.59,15.28-5.75,28.28-23.22,54.28-58.14,7.63-10.24,13.49-19,17.25-24.74A183.21,183.21,0,0,1,1134.19,1078.49Z" transform="translate(-104.02 -207.1)"/><path class="cls-1" d="M1081.8,988.35" transform="translate(-104.02 -207.1)"/><path class="cls-1" d="M1306.84,892.44c3.94,11.07,28.91,84.66-6.18,120.15-12,12.11-26.65,15.45-37.92,17.81-9.65,2-21.17,4.24-34.58,6.44,6.22,12.06,12.62,21.31,7.83,32.76a28.28,28.28,0,0,1-9.39,11.6,81.58,81.58,0,0,0-6.2-25.76,52,52,0,0,0-10-15.86c-12.18,1.76-25.64,3.46-40.38,5,5.16,9.91,9.52,18.45,6,30.9a40.37,40.37,0,0,1-5.6,11.82c-.37-2.9-1-7.21-2.22-12.34-3.06-13.19-7-20.41-11.75-29-21.22,1.95-44.87,3.51-71,4.44,0,0-6.59-37.76-3.61-62,13.39-.43,31.3-1.38,52.56-3.7a38.09,38.09,0,0,1,.87-9.36,77,77,0,0,0,1.94-11,78.28,78.28,0,0,0-1-22.34,47.53,47.53,0,0,1,16.15,17.77,43.4,43.4,0,0,1,3.12,7.93,82,82,0,0,1,2.71,14q6.27-.92,12.81-2c11.47-1.89,21.84-3.6,31.18-5.31.08-3,0-6.18-.23-9.64a115.72,115.72,0,0,0-5.71-28.65,41.3,41.3,0,0,1,22.52,29.09c.46,2,.81,3.89,1.08,5.71,27.69-6.06,43.8-13.19,51.8-27.66,7.89-14.29,6.45-36,3.56-79.45-.85-12.75-2-23.19-2.94-30A183.26,183.26,0,0,1,1306.84,892.44Z" transform="translate(-104.02 -207.1)"/><path class="cls-1" d="M1264.63,629.44c11.2,3.56,84.9,28.17,91.94,77.58,2.41,16.86-3.8,30.57-8.74,41-4.23,8.91-9.43,19.42-15.78,31.44,13.36,2.34,24.6,2.84,30.82,13.57a28.39,28.39,0,0,1,3.56,14.49,81.48,81.48,0,0,0-24.27-10.63,52,52,0,0,0-18.7-1.6q-8.94,16.14-20.45,35.18c11,1.89,20.46,3.58,28.23,13.92a40.57,40.57,0,0,1,6,11.61c-2.54-1.46-6.37-3.53-11.17-5.69-12.36-5.54-20.48-6.79-30.24-8.21-11.29,18.08-24.34,37.85-39.39,59.21,0,0-34.06-17.59-51.55-34.62,7.76-10.92,17.83-25.75,28.83-44.09a37.91,37.91,0,0,1-6.92-6.36,80,80,0,0,0-7.61-8.21,78.35,78.35,0,0,0-18.38-12.74,47.49,47.49,0,0,1,23.92-2.12,44,44,0,0,1,8.21,2.31,83,83,0,0,1,12.79,6.31q3.06-5.53,6.17-11.4c5.43-10.27,10.34-19.57,14.63-28-2.33-1.87-4.92-3.75-7.82-5.65a115.35,115.35,0,0,0-26.27-12.77,41.29,41.29,0,0,1,36.79-.35q2.77,1.26,5.2,2.6c11.91-25.72,16-42.86,9.3-58-6.61-14.92-24.78-26.91-61.13-50.88-10.66-7-19.7-12.39-25.69-15.81A183.15,183.15,0,0,1,1264.63,629.44Z" transform="translate(-104.02 -207.1)"/><path class="cls-1" d="M1081.87,461.38c11.14-3.75,85.16-27.41,120,8.31,11.9,12.18,15,26.91,17.14,38.23,1.85,9.68,3.86,21.23,5.83,34.69,12.16-6,21.53-12.24,32.89-7.25a28.33,28.33,0,0,1,11.43,9.59,81.5,81.5,0,0,0-25.87,5.74,52,52,0,0,0-16,9.76c1.54,12.21,3,25.69,4.27,40.47,10-5,18.63-9.19,31-5.44a40.51,40.51,0,0,1,11.72,5.81c-2.91.32-7.23.91-12.38,2-13.24,2.83-20.54,6.62-29.25,11.23,1.57,21.26,2.71,44.93,3.18,71.05,0,0-37.87,5.92-62,2.51-.19-13.39-.82-31.32-2.77-52.61a38.33,38.33,0,0,1-9.34-1,77,77,0,0,0-11-2.13,78.27,78.27,0,0,0-22.35.56A47.52,47.52,0,0,1,1146.38,617a43.3,43.3,0,0,1,8-3,82.36,82.36,0,0,1,14.05-2.46q-.79-6.29-1.75-12.85c-1.68-11.5-3.21-21.9-4.75-31.26-3-.14-6.19-.13-9.65,0a116,116,0,0,0-28.74,5.2,41.32,41.32,0,0,1,29.48-22q3-.63,5.73-1c-5.57-27.8-12.41-44-26.73-52.29-14.16-8.14-35.9-7.08-79.38-5-12.76.62-23.22,1.64-30.07,2.41A183.18,183.18,0,0,1,1081.87,461.38Z" transform="translate(-104.02 -207.1)"/><path class="cls-1" d="M817.88,508.08c3.31-11.27,26.29-85.5,75.53-93.63,16.8-2.78,30.64,3.13,41.16,7.83,9,4,19.62,9,31.78,15.09,2-13.41,2.29-24.66,12.88-31.11a28.23,28.23,0,0,1,14.41-3.88,81.82,81.82,0,0,0-10.1,24.49,52,52,0,0,0-1.18,18.73c10.89,5.73,22.79,12.25,35.62,19.67,1.64-11,3.13-20.53,13.3-28.53a40.48,40.48,0,0,1,11.47-6.28c-1.4,2.57-3.39,6.45-5.45,11.29-5.26,12.48-6.33,20.63-7.54,30.41,18.33,10.89,38.39,23.51,60.07,38.08,0,0-16.83,34.44-33.47,52.31-11.09-7.52-26.15-17.26-44.72-27.86a38,38,0,0,1-6.2,7.06,77.65,77.65,0,0,0-20.38,26.44,47.45,47.45,0,0,1-2.64-23.86,43.43,43.43,0,0,1,2.13-8.26,82.1,82.1,0,0,1,6-12.92q-5.6-2.94-11.53-5.92c-10.39-5.21-19.79-9.91-28.35-14-1.82,2.37-3.65,5-5.48,7.94A115.8,115.8,0,0,0,933,537.71a43,43,0,0,1-4.85-21.81,42.54,42.54,0,0,1,3.7-15c.79-1.87,1.63-3.62,2.48-5.25-26-11.34-43.2-15-58.17-8-14.78,6.94-26.36,25.37-49.53,62.23-6.79,10.82-11.95,20-15.24,26A183.22,183.22,0,0,1,817.88,508.08Z" transform="translate(-104.02 -207.1)"/><path class="cls-1" d="M656.1,690.73c-4.64-10.8-34.22-82.65-1.45-120.29,11.18-12.85,25.61-17.11,36.71-20.19,9.5-2.62,20.85-5.56,34.11-8.62-7-11.63-14-20.46-9.9-32.19a28.32,28.32,0,0,1,8.63-12.17A81.72,81.72,0,0,0,732,522.58a51.82,51.82,0,0,0,11,15.19c12.05-2.53,25.37-5.08,40-7.54-5.78-9.56-10.67-17.81-7.93-30.46a40.47,40.47,0,0,1,4.83-12.15c.56,2.87,1.5,7.13,3,12.17,3.9,13,8.27,19.93,13.57,28.25,21.06-3.29,44.56-6.35,70.56-8.94,0,0,9,37.27,7.53,61.65-13.34,1.27-31.15,3.35-52.22,7a37.72,37.72,0,0,1-.28,9.4,79.88,79.88,0,0,0-1.23,11.12,78.21,78.21,0,0,0,2.38,22.24A47.5,47.5,0,0,1,806,613.82a44,44,0,0,1-3.63-7.72,82.85,82.85,0,0,1-3.59-13.8q-6.19,1.31-12.66,2.79c-11.32,2.61-21.56,5-30.77,7.27.11,3,.37,6.17.83,9.61a116.17,116.17,0,0,0,7.52,28.23,41.26,41.26,0,0,1-24.32-27.61q-.87-2.91-1.44-5.63c-27.25,7.81-42.87,15.94-49.94,30.89-7,14.76-4.15,36.35,1.49,79.52,1.65,12.67,3.51,23,4.84,29.78A183.27,183.27,0,0,1,656.1,690.73Z" transform="translate(-104.02 -207.1)"/><path class="cls-1" d="M677.88,947c-10.91-4.36-82.62-34.3-86-84.09-1.16-17,6-30.21,11.72-40.23,4.87-8.57,10.82-18.67,18-30.2-13.16-3.3-24.33-4.62-29.75-15.78a28.27,28.27,0,0,1-2.49-14.72,82,82,0,0,0,23.42,12.39,52.11,52.11,0,0,0,18.54,3q10.09-15.46,23-33.59c-10.84-2.69-20.14-5.07-27.13-16a40.67,40.67,0,0,1-5.17-12c2.43,1.64,6.1,4,10.73,6.49,11.92,6.43,19.93,8.27,29.55,10.4,12.59-17.2,27.05-36,43.62-56.18,0,0,32.68,20,48.89,38.3-8.54,10.33-19.67,24.39-32,41.87a38.07,38.07,0,0,1,6.44,6.84,77.37,77.37,0,0,0,24.39,22.8,47.35,47.35,0,0,1-24,.36,43.33,43.33,0,0,1-8-2.9,81.66,81.66,0,0,1-12.29-7.23q-3.46,5.31-7,10.92c-6.17,9.85-11.75,18.76-16.64,26.89,2.19,2,4.63,4.11,7.38,6.21a115.6,115.6,0,0,0,25.27,14.67,41.31,41.31,0,0,1-36.72-2.35c-1.78-1-3.45-2-5-3-13.77,24.78-19.08,41.57-13.52,57.15,5.5,15.37,22.75,28.65,57.24,55.21,10.12,7.8,18.75,13.8,24.47,17.65A183,183,0,0,1,677.88,947Z" transform="translate(-104.02 -207.1)"/><path class="cls-1" d="M878.81,1109.57c-10.85,4.51-83,33.3-120.31.11-12.72-11.32-16.82-25.8-19.77-36.93-2.52-9.53-5.34-20.92-8.25-34.2-11.71,6.84-20.61,13.71-32.29,9.53a28.31,28.31,0,0,1-12.08-8.76,81.7,81.7,0,0,0,25.4-7.55,51.85,51.85,0,0,0,15.31-10.85c-2.39-12.07-4.8-25.42-7.09-40.07-9.63,5.67-17.94,10.47-30.55,7.59a40.54,40.54,0,0,1-12.1-5c2.88-.52,7.15-1.41,12.21-2.86,13-3.75,20-8,28.39-13.25-3-21.1-5.85-44.63-8.15-70.66,0,0,37.37-8.55,61.72-6.84,1.13,13.35,3,31.18,6.45,52.29a38.07,38.07,0,0,1,9.39.38,77.48,77.48,0,0,0,11.11,1.36,78.63,78.63,0,0,0,22.26-2.13,47.36,47.36,0,0,1-16.9,17,43.64,43.64,0,0,1-7.75,3.54A82.6,82.6,0,0,1,782,965.79c.82,4.13,1.7,8.37,2.64,12.69,2.49,11.35,4.74,21.62,6.93,30.85a95.42,95.42,0,0,0,9.62-.73,115.55,115.55,0,0,0,28.31-7.2,41.34,41.34,0,0,1-27.87,24c-2,.55-3.84,1-5.65,1.37,7.51,27.33,15.46,43,30.33,50.28,14.69,7.14,36.3,4.56,79.53-.6,12.69-1.52,23.05-3.26,29.83-4.51A183.5,183.5,0,0,1,878.81,1109.57Z" transform="translate(-104.02 -207.1)"/></g><g id="cris"><path class="cls-2" d="M960.43,1183.28a25.54,25.54,0,0,1,8.72,0,25.9,25.9,0,0,1,9,3.39,375.79,375.79,0,0,0-20.49,125.78,36.82,36.82,0,0,0-30.66-4.27c7.54-21,14.83-44.13,21.28-69.28C953.3,1219.44,957.27,1200.84,960.43,1183.28Z" transform="translate(-104.02 -207.1)"/><path class="cls-2" d="M1067.48,1183.27a25.88,25.88,0,0,0-8.71.08,25.52,25.52,0,0,0-9,3.47,375.66,375.66,0,0,1,21.53,125.6,36.84,36.84,0,0,1,30.62-4.52c-7.71-20.94-15.19-44-21.85-69.1C1074.91,1219.38,1070.79,1200.81,1067.48,1183.27Z" transform="translate(-104.02 -207.1)"/><path class="cls-2" d="M1034.12,1357.88c-1-1.2-8.89-9.88-21.62-9.5a28.34,28.34,0,0,0-20,9.5c1.77-11.41,4.2-27.76,6.75-47.5,3.93-30.36,5.9-45.86,6.25-61.76a303.12,303.12,0,0,0-5.31-63.06,38.07,38.07,0,0,1,28.69.38,338.55,338.55,0,0,0-3.63,65.44c.76,17.51,2.61,27.36,5.5,60.5C1032.45,1331.36,1033.5,1347.34,1034.12,1357.88Z" transform="translate(-104.02 -207.1)"/><path class="cls-2" d="M946,383.32a25.55,25.55,0,0,0,8.72,0,25.85,25.85,0,0,0,9-3.39,375.36,375.36,0,0,1-20.5-125.78,36.82,36.82,0,0,1-30.66,4.27c7.54,21,14.83,44.13,21.28,69.28C938.9,347.16,942.87,365.76,946,383.32Z" transform="translate(-104.02 -207.1)"/><path class="cls-2" d="M1053.08,383.33a25.72,25.72,0,0,1-17.71-3.55,375.51,375.51,0,0,0,21.53-125.6,36.84,36.84,0,0,0,30.62,4.52c-7.71,20.94-15.19,44-21.85,69.1C1060.51,347.22,1056.39,365.79,1053.08,383.33Z" transform="translate(-104.02 -207.1)"/><path class="cls-2" d="M1019.73,208.73c-1.05,1.19-8.9,9.87-21.63,9.5a28.42,28.42,0,0,1-20-9.5c1.77,11.41,4.2,27.75,6.75,47.5,3.93,30.35,5.9,45.85,6.25,61.75A303.12,303.12,0,0,1,985.79,381a38.07,38.07,0,0,0,28.69-.38,338.48,338.48,0,0,1-3.63-65.43c.76-17.52,2.61-27.37,5.5-60.5C1018.05,235.24,1019.1,219.26,1019.73,208.73Z" transform="translate(-104.02 -207.1)"/><path class="cls-2" d="M1385.92,868.11a25.55,25.55,0,0,1,0-8.72,25.89,25.89,0,0,1,3.39-9,376.07,376.07,0,0,0,125.78,20.5,36.76,36.76,0,0,0-4.26,30.66c-21-7.55-44.14-14.83-69.29-21.29C1422.08,875.24,1403.48,871.27,1385.92,868.11Z" transform="translate(-104.02 -207.1)"/><path class="cls-2" d="M1385.92,761.05a25.65,25.65,0,0,0,3.54,17.72,375.94,375.94,0,0,1,125.6-21.54,36.83,36.83,0,0,1-4.52-30.62c-20.94,7.72-44,15.19-69.1,21.86C1422,753.63,1403.45,757.75,1385.92,761.05Z" transform="translate(-104.02 -207.1)"/><path class="cls-2" d="M1560.52,794.41c-1.2,1.05-9.88,8.9-9.5,21.63a28.36,28.36,0,0,0,9.5,20c-11.41-1.77-27.76-4.2-47.5-6.75-30.36-3.93-45.86-5.9-61.75-6.25a303.15,303.15,0,0,0-63.07,5.31,38.07,38.07,0,0,1,.38-28.69,338.55,338.55,0,0,0,65.44,3.63c17.51-.76,27.36-2.61,60.5-5.5C1534,796.09,1550,795,1560.52,794.41Z" transform="translate(-104.02 -207.1)"/><path class="cls-2" d="M561.5,707.12a25.61,25.61,0,0,1-3.4,17.74,375.64,375.64,0,0,0-125.77-20.49,36.77,36.77,0,0,0,4.26-30.66c21,7.54,44.14,14.83,69.29,21.28C525.34,700,543.94,704,561.5,707.12Z" transform="translate(-104.02 -207.1)"/><path class="cls-2" d="M561.5,814.17A25.64,25.64,0,0,0,558,796.46,375.66,375.66,0,0,1,432.36,818a36.84,36.84,0,0,1,4.52,30.62c20.94-7.71,44-15.19,69.1-21.85C525.4,821.6,544,817.48,561.5,814.17Z" transform="translate(-104.02 -207.1)"/><path class="cls-2" d="M386.9,780.82c1.2-1.05,9.88-8.9,9.5-21.63a28.34,28.34,0,0,0-9.5-20c11.41,1.77,27.76,4.2,47.5,6.75,30.36,3.93,45.86,5.9,61.75,6.25a303.15,303.15,0,0,0,63.07-5.31,38.07,38.07,0,0,1-.38,28.69,338.55,338.55,0,0,0-65.44-3.63c-17.51.76-27.36,2.61-60.5,5.5C413.42,779.14,397.44,780.19,386.9,780.82Z" transform="translate(-104.02 -207.1)"/><path class="cls-2" d="M873.6,650.75A50.52,50.52,0,0,1,879,656.9c12,16.18,11.06,35.55,10.79,42.39-2,51,0,184.59,0,184.59h0s-57.25,24-79.14,0,6.1-42,6.1-42,14.63-9,17.25,1.5-4.88,25.87,21,25.87,6-37.13,6-37.13-16.88-26.24-48.75-4.5-22.13,52.88-22.13,52.88,10.88,41.25,54,45.75S933,897,933,897l2.64-197.71c.2-1.32,3.29-19.62,19.48-26.54a32.26,32.26,0,0,1,20.24-1.44l0,227.94a33.54,33.54,0,0,0-20.16,11,32.84,32.84,0,0,0-7.35,15.52,126.38,126.38,0,0,1,71.69.06,23.41,23.41,0,0,0-2.18-10.46,25.87,25.87,0,0,0-8.13-9.5,34.92,34.92,0,0,0-11-5.88V747.15s2.63-9.53,16.5,8.47S1044,789.77,1044,789.77l26.62-34.52s12.76-21,15-3.37l-.87,150c-1.58.15-11,1.21-17.24,9.53a24.47,24.47,0,0,0-4.76,15.25,202.23,202.23,0,0,1,91.87,0,28,28,0,0,0-3.74-11.28,28.77,28.77,0,0,0-13.13-11.5l-.37-230.38s-1.88-9.38,21-11.62V650.62h-67.5l-42.38,65.63-48-65.63-122.5.13Z" transform="translate(-104.02 -207.1)"/><path class="cls-3" d="M1063.75,947.38" transform="translate(-104.02 -207.1)"/><path class="cls-2" d="M874.39,653.66" transform="translate(-104.02 -207.1)"/></g><g id="TEXTO"><text class="cls-4" transform="translate(87.74 1412.23)">INSTITUTO TECNOLÓGICO</text><text class="cls-5" transform="translate(66.46 1607.12)">JESUS MARIA</text></g><g id="corazon"><path class="cls-6" d="M1805,1684.71c-2.84-8.11-5.91-16.91-15-23.76-10.68-8.08-22.67-8.14-26.12-8-19.15.6-30.61,14.16-32.34,16.28-1.73-2.12-13.19-15.68-32.33-16.28-3.46-.11-15.45-.05-26.13,8-9,6.85-12.12,15.65-15,23.76a70.38,70.38,0,0,0-3.73,27.38c1.32,20.86,11.95,35.73,21.07,48.17s26.4,32.46,56.08,49.81c29.69-17.35,47-37.44,56.08-49.81s19.75-27.31,21.08-48.17A70.52,70.52,0,0,0,1805,1684.71Z" transform="translate(-104.02 -207.1)"/><path class="cls-7" d="M1789,1734.32a4.71,4.71,0,0,1-1.11,2.39c-.91,1-2.17.72-2.69-.58-.12-.32-.18-.66-.27-1,0,0-.1-.05-.14,0-1.55.61-2.37.12-2.45-1.58a4.05,4.05,0,0,1,.25-1.87,4.44,4.44,0,0,0-.19-3.91,9.63,9.63,0,0,0-4.62-4.87,7.92,7.92,0,0,0,0,1.47,1.15,1.15,0,0,1-.64,1.36,8.66,8.66,0,0,0-.82.6c0,.09,0,.16,0,.18,1.68.85,1.41,2.54,1.63,4,1.11,7.09,2.16,14.2,3.25,21.3a2.05,2.05,0,0,0,.5.94c1,1.16,2,2.29,3.14,3.54-.35,0-.58.06-.8.06-4,0-8.07,0-12.1,0a.86.86,0,0,1-1-.72c-.51-1.65-1.08-3.29-1.7-5.17-.64,1.82-1.25,3.38-1.72,5-.23.74-.59.9-1.3.89-4,0-8.06,0-12.1,0h-1.07c.69-.81,1.2-1.55,1.83-2.15a7.46,7.46,0,0,0,2.07-4.41c1.17-7.14,2.48-14.25,3.66-21.39.15-1,.82-1.35,1.49-2a2.81,2.81,0,0,1-1.78-3.18,3.83,3.83,0,0,0-.33.46c-1.34,2.34-2.67,4.7-4,7a2.55,2.55,0,0,0-.35,1.86,3.25,3.25,0,0,1-2.21,3.7,2.76,2.76,0,0,1-2.83-.5,2.82,2.82,0,0,1-.93-2.8,1.26,1.26,0,0,0-.15-.91c-2.91-3.31-5.84-6.59-8.77-9.89,0,0-.12-.09-.27-.21-.13.66-.3,1.26-.36,1.87a2.1,2.1,0,0,1-1.61,2.14l8.23,11.39h-8.1c.26.64.48,1.17.7,1.69,1.92,4.6,3.85,9.19,5.73,13.8a5.89,5.89,0,0,0,1.74,2.4c.43.35.81.74,1.34,1.22-.38,0-.6.08-.82.08-3.31,0-6.63,0-10,0a1,1,0,0,1-1.06-.7c-1.16-2.64-2.36-5.27-3.55-7.89-.13-.29-.27-.56-.47-1l-1.68,3.19c-1,1.92-2,3.85-3,5.77a1.09,1.09,0,0,1-.73.54c-4,0-8,0-11.94,0a1.44,1.44,0,0,1-.32-.09c.65-.52,1.21-1,1.82-1.43a5.28,5.28,0,0,0,1.69-2c2.5-4.88,5-9.74,7.56-14.61.15-.28.27-.56.46-1h-7.42l7.38-11.26c0-.08-.06-.16-.09-.17-1.27-.26-1.49-1.19-1.53-2.29,0-.54-.15-1.07-.25-1.79l-3.58,4.37c-1.29,1.58-2.56,3.18-3.88,4.74a1.51,1.51,0,0,0-.35,1.5,3.13,3.13,0,0,1-2,3.74,3.22,3.22,0,0,1-4.09-1.47,7.89,7.89,0,0,1-.38-1.91c-.05-.25,0-.55-.17-.72-2.23-2.77-4.47-5.53-6.86-8.25.18,1.12.35,2.23.55,3.4l-1.23.33v1.11a4.79,4.79,0,0,0,.64,0c.42,0,.62.11.66.56l1.62,13.66c.34,2.95.69,5.9,1.07,8.84a2.37,2.37,0,0,0,.54,1.1c1,1.17,2,2.3,3.1,3.57-.42,0-.67.06-.92.06-3.77,0-7.53,0-11.31,0a.93.93,0,0,1-1.07-.75c-.56-1.63-1.17-3.23-1.83-5.06l-1.37,4.26c-.49,1.54-.48,1.54-2.13,1.54H1680c.93-1.17,1.68-2.22,2.53-3.19a3.79,3.79,0,0,0,.91-2.21q1.18-10.71,2.43-21.41c0-.29.09-.57.15-.94h1.21v-1.19l-1.12-.3c.11-1.21.2-2.41.31-3.77-2.32,2-4.06,4.15-4.5,7.12a5.68,5.68,0,0,0,.21,1.71,18.28,18.28,0,0,1,.38,1.93c.13,2-.75,2.61-2.54,1.94a11.54,11.54,0,0,1-.43,1.25,1.52,1.52,0,0,1-2.45.55,3.66,3.66,0,0,1-1.28-2.73,21.72,21.72,0,0,1,4-14.63c.71-1,1.4-2.08,2.17-3a1.53,1.53,0,0,0,.26-1.87c-.29-.53-.14-.87.36-1.24,1.91-1.38,3.8-2.79,5.66-4.25a2.64,2.64,0,0,0,.87-1.31c.2-.7.5-1,1.21-.88a2.47,2.47,0,0,0,.52,0v-1.68a18.51,18.51,0,0,1-7.77-5.86c-.06-.09-.14-.17-.19-.26a1.4,1.4,0,0,0-1.74-.84c-1.46.26-2.92-1.16-3.25-2.89a3.7,3.7,0,0,1,1.8-4c.49-.27.4-.63.4-1a14.64,14.64,0,0,1,6.47-12.46,13.78,13.78,0,0,1,18.54,2.69,16,16,0,0,1,3.51,10.41,2.05,2.05,0,0,0,.4,1.19c1.89,2.48.37,5.89-2.24,6.12a1,1,0,0,0-.62.38,17.55,17.55,0,0,1-8.31,6.59V1708c1.33-.38,1.52.46,1.67,1.42a1.56,1.56,0,0,0,.5.76c1.62,1.41,3.24,2.82,4.89,4.2.46.38.66.73.33,1.26-.46.73-.23,1.26.3,1.88,2.45,2.82,4.86,5.69,7.27,8.54a2.71,2.71,0,0,1,.24.44l3-4c1.49-2,3-4,4.48-6a1.54,1.54,0,0,0,.34-1.66c-.11-.27-.12-.57-.23-.84-.21-.5,0-.75.43-1,2.44-1.33,4.86-2.71,7.31-4a1,1,0,0,0,.63-1c0-.85,0-1.69,0-2.6l-1.4-.48a14.56,14.56,0,0,1-8-6.74.85.85,0,0,0-.88-.49c-1.24,0-2.48,0-3.76,0a17.25,17.25,0,0,1,6.93-17.85c6.42-4.48,13.93-4.76,20-.63s8.33,11.73,7.09,18.48c-1.14,0-2.3,0-3.46,0a1.06,1.06,0,0,0-.79.43,13.66,13.66,0,0,1-8.84,7.22c0,1,0,2,0,3,0,.24.32.52.55.68,2.21,1.41,4.43,2.81,6.68,4.18.49.3.71.58.43,1.13-.54,1.06-.17,1.86.59,2.73,2.44,2.83,4.78,5.74,7.17,8.63l.61.69c.2-.29.37-.52.53-.76,2-3.09,4-6.19,6-9.26a1.73,1.73,0,0,0,.27-1.84c-.33-.68-.08-1.09.51-1.5,1.5-1,2.93-2.2,4.41-3.26.5-.35.68-.65.4-1.22a8.22,8.22,0,0,1-.39-1.21h2.67c.36-1.13.28-1.3-.71-1.58a14.32,14.32,0,0,1-7.62-5.18c-.17-.22-.6-.49-.79-.42-1.7.57-3.72-1-3.9-3.09a4,4,0,0,1,1.44-3.6,1.48,1.48,0,0,0,.26-1,14.65,14.65,0,0,1,4.78-12.15,13.9,13.9,0,0,1,21.41,3.12,16,16,0,0,1,2.22,9.14,1.1,1.1,0,0,0,.45,1.06,3.7,3.7,0,0,1,1.31,3.85,3.29,3.29,0,0,1-2.36,2.67,1.73,1.73,0,0,1-1,.08c-.82-.29-1.2.15-1.67.71a15.15,15.15,0,0,1-7,4.72c-1.14.4-1.15.38-1,1.69h3a3.41,3.41,0,0,1-.1.56c-.47,1.45-.47,1.44.74,2.39s2.44,2,3.7,2.91a.8.8,0,0,1,.33,1.13c-.47.9-.15,1.45.6,2.06a25.71,25.71,0,0,1,5.86,6.23A17.91,17.91,0,0,1,1789,1734.32Z" transform="translate(-104.02 -207.1)"/></g></svg>