<svg xmlns="http://www.w3.org/2000/svg" viewBox="0 0 1663.86 1629.24"><defs><style>.cls-1{fill:#177fc2;}.cls-1,.cls-2,.cls-3{stroke:#1d1d1b;stroke-miterlimit:10;}.cls-2{fill:#535353;}.cls-3{fill:none;}</style></defs><g id="corona"><path class="cls-1" d="M896.77,1273.53" transform="translate(-168.07 -144.68)"/><path class="cls-1" d="M1227.07,1377c-5.93,15.53-46.64,117.66-117,123.64-24,2-42.87-7.84-57.18-15.65-12.24-6.7-26.67-14.89-43.14-24.84-4.37,18.7-6,34.53-21.65,42.45a40.12,40.12,0,0,1-20.76,3.87,115.64,115.64,0,0,0,17-33.43c3.64-11.61,4-19.52,3.77-26.29Q966,1432.81,940,1415c-3.56,15.41-6.71,28.61-21.95,38.76a57.24,57.24,0,0,1-16.88,7.58c2.26-3.47,5.5-8.72,8.94-15.32,8.82-17,11.24-28.39,14-42.06-24.64-17.4-51.52-37.43-80.48-60.41,0,0,27.59-46.7,53.06-70,14.8,11.84,35,27.26,60,44.28a53.47,53.47,0,0,1,9.54-9.26,112.71,112.71,0,0,0,12.21-10.09A110.5,110.5,0,0,0,998,1273.53a67.07,67.07,0,0,1,1.06,34,61,61,0,0,1-3.92,11.4,116.52,116.52,0,0,1-9.94,17.56q7.58,4.77,15.6,9.64c14.08,8.5,26.82,16.18,38.43,22.92,2.83-3.14,5.71-6.64,8.62-10.59a163.44,163.44,0,0,0,20.16-36.08,58.44,58.44,0,0,1-2.47,52c-1.33,2.55-2.7,4.93-4.09,7.13,35.37,18.91,59.26,26,81.16,17.82,21.62-8.14,40-32.84,76.8-82.25,10.8-14.51,19.09-26.85,24.41-35A259.24,259.24,0,0,1,1227.07,1377Z" transform="translate(-168.07 -144.68)"/><path class="cls-1" d="M1153,1249.43" transform="translate(-168.07 -144.68)"/><path class="cls-1" d="M1471.36,1113.73c5.58,15.67,40.91,119.78-8.74,170-16.95,17.14-37.71,21.87-53.66,25.21-13.65,2.85-30,6-48.93,9.11,8.8,17.06,17.85,30.15,11.08,46.35a40.05,40.05,0,0,1-13.28,16.41,115.43,115.43,0,0,0-8.78-36.45c-4.77-11.19-9.63-17.45-14.2-22.44-17.24,2.49-36.28,4.9-57.14,7.06,7.3,14,13.47,26.12,8.46,43.73a57.23,57.23,0,0,1-7.92,16.72c-.53-4.1-1.47-10.2-3.14-17.46-4.34-18.66-9.88-28.88-16.62-41.1-30,2.75-63.5,5-100.44,6.28,0,0-9.32-53.43-5.1-87.72,18.94-.6,44.28-1.94,74.36-5.23a53.58,53.58,0,0,1,1.24-13.24,112.21,112.21,0,0,0,2.74-15.6,111,111,0,0,0-1.36-31.61,67.23,67.23,0,0,1,22.85,25.14,61.62,61.62,0,0,1,4.42,11.22,116.09,116.09,0,0,1,3.83,19.81q8.87-1.29,18.13-2.8c16.23-2.67,30.9-5.09,44.11-7.51.11-4.22,0-8.75-.32-13.64a164,164,0,0,0-8.08-40.54,60.77,60.77,0,0,1,23.67,21,60.05,60.05,0,0,1,8.2,20.22c.64,2.8,1.14,5.5,1.52,8.08,39.18-8.59,62-18.66,73.3-39.14,11.17-20.22,9.12-51,5-112.42-1.2-18-2.9-32.8-4.16-42.48A259.26,259.26,0,0,1,1471.36,1113.73Z" transform="translate(-168.07 -144.68)"/><path class="cls-1" d="M1411.63,741.6c15.85,5,120.13,39.86,130.1,109.77,3.4,23.86-5.39,43.25-12.37,58-6,12.6-13.34,27.47-22.33,44.48,18.91,3.3,34.81,4,43.61,19.2a40.15,40.15,0,0,1,5,20.5,115.63,115.63,0,0,0-34.34-15c-11.8-3-19.72-2.88-26.46-2.26Q1482.22,999.08,1466,1026c15.58,2.67,28.94,5.07,39.94,19.71a57.23,57.23,0,0,1,8.53,16.42c-3.59-2.07-9-5-15.81-8.06-17.48-7.83-29-9.6-42.78-11.62-16,25.59-34.45,53.57-55.74,83.79,0,0-48.19-24.88-72.95-49,11-15.45,25.24-36.45,40.81-62.39a53.06,53.06,0,0,1-9.8-9,110,110,0,0,0-36.77-29.65,67.26,67.26,0,0,1,33.85-3,61.47,61.47,0,0,1,11.6,3.27,115.69,115.69,0,0,1,18.1,8.93q4.33-7.84,8.73-16.13c7.69-14.54,14.64-27.7,20.7-39.68-3.3-2.64-6.95-5.31-11.06-8a164,164,0,0,0-37.17-18.07,58.47,58.47,0,0,1,52.06-.49c2.62,1.18,5.07,2.42,7.35,3.68,16.86-36.4,22.62-60.65,13.17-82-9.36-21.12-35.07-38.08-86.49-72-15.1-10-27.89-17.53-36.36-22.38A259.28,259.28,0,0,1,1411.63,741.6Z" transform="translate(-168.07 -144.68)"/><path class="cls-1" d="M1153.05,503.8c15.76-5.3,120.48-38.77,169.81,11.76,16.83,17.24,21.2,38.08,24.26,54.09,2.61,13.7,5.46,30.05,8.24,49.09,17.21-8.5,30.46-17.32,46.54-10.26a40,40,0,0,1,16.17,13.57,115.51,115.51,0,0,0-36.59,8.13c-11.28,4.57-17.62,9.32-22.69,13.8,2.18,17.28,4.25,36.36,6,57.26,14.16-7,26.35-13,43.87-7.69a57.37,57.37,0,0,1,16.59,8.22c-4.12.45-10.23,1.29-17.52,2.83-18.73,4-29,9.37-41.39,15.89,2.22,30.08,3.84,63.57,4.51,100.54,0,0-53.59,8.37-87.8,3.54-.26-19-1.16-44.31-3.92-74.44a53.93,53.93,0,0,1-13.22-1.47,109.52,109.52,0,0,0-15.54-3,111.24,111.24,0,0,0-31.64.8,67.25,67.25,0,0,1,25.55-22.4,61.89,61.89,0,0,1,11.29-4.22,115.61,115.61,0,0,1,19.88-3.48q-1.12-8.88-2.48-18.18c-2.38-16.27-4.54-31-6.72-44.23-4.23-.19-8.75-.19-13.65.07a164.07,164.07,0,0,0-40.67,7.36,58.43,58.43,0,0,1,41.72-31.13c2.81-.59,5.52-1,8.1-1.38-7.88-39.32-17.56-62.29-37.82-74-20-11.52-50.79-10-112.32-7-18.06.88-32.85,2.32-42.55,3.41A259.19,259.19,0,0,1,1153.05,503.8Z" transform="translate(-168.07 -144.68)"/><path class="cls-1" d="M779.5,569.88c4.69-16,37.21-121,106.88-132.48,23.78-3.93,43.36,4.43,58.24,11.08,12.72,5.71,27.76,12.74,45,21.35,2.89-19,3.24-34.89,18.23-44a40.09,40.09,0,0,1,20.39-5.49A115.47,115.47,0,0,0,1013.91,455c-2.71,11.86-2.45,19.78-1.67,26.5,15.41,8.11,32.24,17.33,50.4,27.83,2.33-15.64,4.43-29.05,18.82-40.36a57.23,57.23,0,0,1,16.23-8.9c-2,3.64-4.8,9.13-7.71,16-7.44,17.65-9,29.19-10.67,43,25.93,15.41,54.31,33.26,85,53.88,0,0-23.82,48.73-47.37,74-15.68-10.64-37-24.42-63.27-39.42a53.91,53.91,0,0,1-8.78,10,109.92,109.92,0,0,0-28.83,37.41,67.27,67.27,0,0,1-3.74-33.77,61.81,61.81,0,0,1,3-11.68,116.18,116.18,0,0,1,8.53-18.29q-7.93-4.16-16.32-8.37c-14.7-7.37-28-14-40.12-19.82-2.57,3.35-5.16,7.07-7.75,11.23a163.71,163.71,0,0,0-17.25,37.56A60.66,60.66,0,0,1,935.55,581a60,60,0,0,1,5.23-21.18c1.13-2.65,2.31-5.12,3.51-7.43C907.54,536.28,883.17,531.06,862,541c-20.91,9.82-37.3,35.9-70.07,88.06-9.62,15.31-16.91,28.27-21.57,36.84A259.38,259.38,0,0,1,779.5,569.88Z" transform="translate(-168.07 -144.68)"/><path class="cls-1" d="M550.6,828.33c-6.56-15.28-48.42-117-2.06-170.21,15.82-18.18,36.24-24.22,52-28.57,13.44-3.71,29.51-7.87,48.26-12.2-9.87-16.46-19.74-29-14-45.54A40.1,40.1,0,0,1,647,554.59,115.91,115.91,0,0,0,658,590.4c5.48,10.87,10.72,16.81,15.6,21.5,17-3.58,35.89-7.19,56.58-10.67C722,587.69,715.11,576,719,558.13a57.3,57.3,0,0,1,6.84-17.2c.79,4.06,2.12,10.09,4.25,17.23,5.51,18.34,11.69,28.2,19.19,40,29.8-4.65,63.05-9,99.84-12.64,0,0,12.69,52.73,10.65,87.22-18.87,1.8-44.07,4.75-73.88,9.94a53.93,53.93,0,0,1-.39,13.29,109.52,109.52,0,0,0,1.62,47.21,67.19,67.19,0,0,1-24.4-23.64,61.77,61.77,0,0,1-5.13-10.92,116.86,116.86,0,0,1-5.08-19.53q-8.76,1.85-17.91,3.94c-16,3.7-30.52,7-43.55,10.29.16,4.23.53,8.74,1.18,13.6a163.66,163.66,0,0,0,10.64,39.94,58.52,58.52,0,0,1-34.42-39.06c-.81-2.75-1.48-5.41-2-8-38.56,11.05-60.67,22.55-70.68,43.7-9.86,20.89-5.87,51.43,2.11,112.51,2.35,17.93,5,32.56,6.85,42.14A259.43,259.43,0,0,1,550.6,828.33Z" transform="translate(-168.07 -144.68)"/><path class="cls-1" d="M581.41,1190.87c-15.44-6.18-116.89-48.55-121.72-119-1.65-24,8.53-42.74,16.58-56.91,6.89-12.13,15.31-26.43,25.53-42.74-18.62-4.67-34.43-6.54-42.1-22.33a40.08,40.08,0,0,1-3.52-20.82,115.51,115.51,0,0,0,33.14,17.52c11.56,3.82,19.46,4.32,26.23,4.19q14.3-21.87,32.49-47.53c-15.35-3.8-28.49-7.17-38.39-22.57a57.43,57.43,0,0,1-7.31-17c3.43,2.32,8.63,5.64,15.18,9.19,16.86,9.09,28.2,11.69,41.82,14.71,17.8-24.34,38.27-50.9,61.71-79.49,0,0,46.24,28.35,69.17,54.19-12.08,14.61-27.83,34.51-45.25,59.24a53.67,53.67,0,0,1,9.11,9.69,109.88,109.88,0,0,0,34.5,32.26,67.17,67.17,0,0,1-34,.51,61.93,61.93,0,0,1-11.34-4.11,115.52,115.52,0,0,1-17.4-10.23q-4.89,7.5-9.89,15.45c-8.73,13.94-16.62,26.55-23.54,38,3.1,2.88,6.54,5.81,10.44,8.79a163.94,163.94,0,0,0,35.75,20.75,58.51,58.51,0,0,1-52-3.32c-2.52-1.37-4.88-2.78-7.06-4.21-19.48,35.06-27,58.83-19.13,80.86,7.78,21.75,32.18,40.55,81,78.13,14.33,11,26.53,19.52,34.62,25A259.44,259.44,0,0,1,581.41,1190.87Z" transform="translate(-168.07 -144.68)"/><path class="cls-1" d="M865.72,1421c-15.36,6.39-117.48,47.12-170.22.16-18-16-23.81-36.5-28-52.26-3.56-13.48-7.55-29.59-11.66-48.39-16.57,9.69-29.17,19.41-45.7,13.5a40,40,0,0,1-17.08-12.41A115.64,115.64,0,0,0,629,1310.88c10.93-5.35,16.93-10.53,21.67-15.36-3.39-17.08-6.79-36-10-56.69-13.63,8-25.38,14.81-43.23,10.74a57,57,0,0,1-17.11-7c4.07-.74,10.11-2,17.27-4,18.41-5.31,28.33-11.38,40.17-18.75-4.32-29.85-8.27-63.14-11.53-100,0,0,52.87-12.11,87.34-9.69,1.59,18.89,4.26,44.13,9.12,74a53.28,53.28,0,0,1,13.28.55,113.83,113.83,0,0,0,15.73,1.92,110.6,110.6,0,0,0,31.49-3,67.23,67.23,0,0,1-23.91,24.14,62.21,62.21,0,0,1-11,5,117.1,117.1,0,0,1-19.59,4.86q1.75,8.79,3.75,18c3.51,16.06,6.7,30.59,9.8,43.65,4.23-.1,8.74-.42,13.61-1a164,164,0,0,0,40.06-10.2,60.71,60.71,0,0,1-19.68,24.74,60.09,60.09,0,0,1-19.76,9.24c-2.76.79-5.43,1.43-8,1.94,10.62,38.68,21.88,60.92,42.92,71.16,20.78,10.09,51.36,6.44,112.53-.86,18-2.14,32.61-4.62,42.2-6.38A259.39,259.39,0,0,1,865.72,1421Z" transform="translate(-168.07 -144.68)"/></g><g id="cris"><path class="cls-2" d="M981.21,1525.25a36.35,36.35,0,0,1,25.11,4.8,531.71,531.71,0,0,0-29,178,52.05,52.05,0,0,0-43.38-6c10.67-29.72,21-62.45,30.11-98C971.12,1576.42,976.74,1550.1,981.21,1525.25Z" transform="translate(-168.07 -144.68)"/><path class="cls-2" d="M1132.69,1525.24a36.6,36.6,0,0,0-12.34.11,36.12,36.12,0,0,0-12.73,4.91A532,532,0,0,1,1138.09,1708a52.09,52.09,0,0,1,43.33-6.4c-10.92-29.63-21.5-62.27-30.93-97.77C1143.2,1576.33,1137.36,1550.05,1132.69,1525.24Z" transform="translate(-168.07 -144.68)"/><path class="cls-2" d="M1085.48,1772.29c-1.47-1.69-12.59-14-30.59-13.44-16.67.49-26.68,11.58-28.3,13.44,2.5-16.14,5.93-39.27,9.55-67.2,5.56-42.95,8.34-64.89,8.84-87.38a428.28,428.28,0,0,0-7.52-89.23,53.88,53.88,0,0,1,40.6.53,478.46,478.46,0,0,0-5.13,92.59c1.07,24.79,3.69,38.72,7.78,85.61C1083.11,1734.78,1084.6,1757.39,1085.48,1772.29Z" transform="translate(-168.07 -144.68)"/><path class="cls-2" d="M960.83,393.36a36.27,36.27,0,0,0,25.11-4.81,532.27,532.27,0,0,1-29-178,52.14,52.14,0,0,1-43.37,6c10.67,29.72,21,62.45,30.11,98C950.75,342.19,956.37,368.51,960.83,393.36Z" transform="translate(-168.07 -144.68)"/><path class="cls-2" d="M1112.31,393.36a36.31,36.31,0,0,1-25.07-5,531.52,531.52,0,0,0,30.48-177.72A52,52,0,0,0,1161,217c-10.91,29.63-21.49,62.28-30.92,97.78C1122.82,342.28,1117,368.55,1112.31,393.36Z" transform="translate(-168.07 -144.68)"/><path class="cls-2" d="M1065.11,146.31c-1.48,1.69-12.59,14-30.6,13.44-16.66-.48-26.67-11.57-28.3-13.44,2.51,16.15,5.94,39.27,9.55,67.21,5.56,43,8.35,64.88,8.85,87.38a429.77,429.77,0,0,1-7.52,89.23,53.8,53.8,0,0,0,40.59-.54,479.27,479.27,0,0,1-5.13-92.59c1.08-24.78,3.7-38.72,7.79-85.6C1062.74,183.83,1064.23,161.22,1065.11,146.31Z" transform="translate(-168.07 -144.68)"/><path class="cls-2" d="M1583.25,1079.3a36.29,36.29,0,0,1,4.81-25.11,531.56,531.56,0,0,0,178,29,52.12,52.12,0,0,0-6,43.38c-29.72-10.67-62.45-21-98-30.11C1634.42,1089.39,1608.1,1083.77,1583.25,1079.3Z" transform="translate(-168.07 -144.68)"/><path class="cls-2" d="M1583.25,927.83a36.31,36.31,0,0,0,5,25.07A531.52,531.52,0,0,1,1766,922.42a52.11,52.11,0,0,1-6.39-43.32C1730,890,1697.31,900.59,1661.81,910,1634.33,917.32,1608.06,923.15,1583.25,927.83Z" transform="translate(-168.07 -144.68)"/><path class="cls-2" d="M1830.3,975c-1.69,1.47-14,12.59-13.44,30.6.49,16.66,11.58,26.67,13.44,28.29-16.15-2.5-39.27-5.93-67.21-9.55-42.95-5.55-64.88-8.34-87.37-8.84a428.28,428.28,0,0,0-89.23,7.52,53.73,53.73,0,0,1,.53-40.59,478.31,478.31,0,0,0,92.59,5.12c24.78-1.07,38.72-3.69,85.6-7.78C1792.78,977.4,1815.39,975.91,1830.3,975Z" transform="translate(-168.07 -144.68)"/><path class="cls-2" d="M416.75,851.51a36.27,36.27,0,0,1-4.81,25.11,531.56,531.56,0,0,0-178-29,52.11,52.11,0,0,0,6-43.38c29.72,10.67,62.45,21,98,30.11C365.58,841.42,391.9,847,416.75,851.51Z" transform="translate(-168.07 -144.68)"/><path class="cls-2" d="M416.75,1003a36.28,36.28,0,0,0-5-25.07A532,532,0,0,1,234,1008.39a52.14,52.14,0,0,1,6.39,43.33c29.63-10.92,62.28-21.5,97.78-30.92C365.67,1013.5,391.94,1007.66,416.75,1003Z" transform="translate(-168.07 -144.68)"/><path class="cls-2" d="M169.7,955.79c1.69-1.48,14-12.59,13.44-30.6-.49-16.66-11.58-26.67-13.44-28.3,16.15,2.5,39.27,5.94,67.21,9.55,43,5.56,64.88,8.35,87.37,8.84a428.84,428.84,0,0,0,89.23-7.51,53.73,53.73,0,0,1-.53,40.59,479.27,479.27,0,0,0-92.59-5.13c-24.78,1.08-38.72,3.69-85.6,7.78C207.22,953.42,184.61,954.9,169.7,955.79Z" transform="translate(-168.07 -144.68)"/><path class="cls-2" d="M858.35,771.76a70,70,0,0,1,7.59,8.69c16.92,22.9,15.65,50.31,15.26,60-2.87,72.15.07,261.18.07,261.18h0s-81,34-112,0,8.64-59.43,8.64-59.43,20.69-12.73,24.41,2.13-6.9,36.61,29.71,36.61,8.49-52.53,8.49-52.53-23.88-37.14-69-6.37-31.3,74.82-31.3,74.82,15.39,58.36,76.4,64.73,125.76-41.39,125.76-41.39l3.73-279.75c.29-1.86,4.66-27.75,27.57-37.55a45.71,45.71,0,0,1,28.64-2l0,322.53A47.46,47.46,0,0,0,973.84,1139a46.43,46.43,0,0,0-10.4,22,179,179,0,0,1,101.44.07,33.12,33.12,0,0,0-3.1-14.8c-3.24-6.88-8-10.69-11.49-13.44a49.54,49.54,0,0,0-15.57-8.31V908.15s3.72-13.47,23.35,12,41.39,48.32,41.39,48.32l37.67-48.85s18-29.71,21.22-4.77l-1.23,212.24c-2.24.21-15.57,1.72-24.4,13.49a34.6,34.6,0,0,0-6.73,21.58,285.84,285.84,0,0,1,130,0,39.92,39.92,0,0,0-5.31-16,40.77,40.77,0,0,0-18.57-16.27l-.53-326s-2.66-13.26,29.71-16.45V771.58h-95.51l-60,92.85-67.91-92.85-173.33.17Z" transform="translate(-168.07 -144.68)"/><path class="cls-3" d="M1127.4,1191.46" transform="translate(-168.07 -144.68)"/><path class="cls-2" d="M859.47,775.88" transform="translate(-168.07 -144.68)"/></g></svg>